<?xml version="1.0" encoding="utf-8"?>
<!-- Generator: Adobe Illustrator 21.0.2, SVG Export Plug-In . SVG Version: 6.00 Build 0)  -->
<svg version="1.1" xmlns="http://www.w3.org/2000/svg" xmlns:xlink="http://www.w3.org/1999/xlink" x="0px" y="0px"
	 viewBox="0 0 509 1112.3" style="enable-background:new 0 0 509 1112.3;" xml:space="preserve">
<style type="text/css">
	.st0{fill:#FFFFFF;}
</style>
<g id="Blanc">
	<g>
		<g>
			<path class="st0" d="M169.2,1024.1l-18.5-22.4c-0.7-0.8-67.3-82.5-109.6-228.8c-24.8-85.8-36.7-177-35.3-271
				C7.5,384.6,30,262.5,72.6,139l1.3-3.7l77.9-41.7l-1.2,17.8c0,0.6-3.5,57.1,17,99.8c13.5-36.4,48.1-117.9,109.2-191.8l8.4-10.1
				l50.9,74.4l22.6,27.2c0.7,0.8,67.6,82.7,109.9,229.4c24.7,86,36.4,177.2,34.7,271.2C501,729,477.8,851,434.2,974.2l-1.3,3.6
				l-78.9,43.3l3.5-20.3c0.1-0.5,7.1-45.1-18.1-96.9c-12.9,35.3-46,113.3-108.7,188.9l-8.4,10.2L169.2,1024.1z M108.2,270.4
				c-7.8,26.8-17.2,68.2-21,120.8c-6.5,87.7,1.7,225.1,77.1,381.7l3,6.2l-4.8,5c-0.4,0.4-46.4,54.4,5.3,208.2l5.6,16.5
				c15.6-45.6,79.8-256.5-2.4-429.1l-5.7-12l13.2-2c1.5-0.2,37.2-6.6,43.9-60.5c2.3-18.8,1-35.3-0.6-56.2
				c-3.1-39.8-7.8-98.4,10.3-222.4c-14.6,32.6-29.7,84.6-30.4,161.1l-0.2,17.7l-15-9.4C184,394.5,133,361.7,108.2,270.4z
				 M335.5,100.2c-12.9,44.8-75.9,284.3,1.5,432.7l6.3,12l-13.3,2.3c-1.6,0.3-40.8,8.2-45.1,70.1c-1.4,20.7,0.1,37.9,1.8,57.8
				c3.7,42.1,8.3,93.7-9.5,209.8c14.5-33.1,29.2-85,29.6-159.4l0.1-17.4l14.9,8.9c2.3,1.4,53.5,32.9,77.1,126.3
				c8-25.1,17.8-64.2,22-114.9c7.1-85.5-0.6-222.4-77.5-389.2l-3.1-6.6l5.5-4.9c0.3-0.3,44.3-46.3-4.2-207.5L335.5,100.2z"/>
			<path class="st0" d="M284.8,18.8l48.2,70.5l-0.6,2c-0.9,2.8-86.6,278.9-0.3,444.3l2.7,5.1l-5.7,1c-1.8,0.3-45.1,9-49.8,75.3
				c-1.5,21.1,0.1,38.5,1.8,58.7c4.1,45.9,9.1,102.7-15,242.6c16.3-25.7,45.9-86.8,46.4-192.7l0-7.4l6.4,3.8
				c2.5,1.5,58.4,36,78.7,142c8.2-21.4,23.3-68.3,28.9-135.1c7.1-86.2-0.6-224.1-78-392l-1.3-2.8l2.3-2.1
				c0.5-0.4,47.6-46.4-2.5-213.3l-6-20l13.3,16.1c0.7,0.8,66.9,81.8,108.8,227.3c24.6,85.4,36.2,176.1,34.4,269.5
				c-2.2,116.7-25.3,238.1-68.6,360.8l-0.5,1.5l-66.7,36.6l1.5-8.7c0.1-0.5,8.7-53.3-24.8-112c-9.2,27.8-41.6,114.6-112,199.4
				l-3.6,4.4l-48.2-71.6l0.8-2.1c1-2.4,93.9-246.7,0.6-442.5l-2.5-5.2l5.6-0.9c1.7-0.3,41.5-7.3,48.6-65.4
				c2.4-19.4,1.1-36.1-0.6-57.3c-3.4-43.2-8.5-107.7,15.3-253.7c-16,24.8-45.7,84.9-46.7,192.8l-0.1,7.6l-6.4-4
				c-2.5-1.6-58.7-37.8-80.4-142c-7.9,22.9-22.4,72.9-27.4,141.6c-6.5,88.4,1.7,226.8,77.6,384.6l1.3,2.7l-2,2.1
				c-0.5,0.5-49.4,55,4,214l7.3,21.7l-14.6-17.6c-0.7-0.8-66.5-81.4-108.5-226.8C21.9,686.1,10.1,595.4,11.4,502
				C13.1,385.3,35.5,263.8,78,140.9l0.5-1.6l66.9-35.9l-0.5,7.7c0,0.7-4.3,69,23.8,114c9.5-27.6,44.2-119.4,112.5-201.9L284.8,18.8
				 M285.6,0L276,11.6l-3.6,4.3c-55.1,66.5-88.8,139.2-105.1,180.2c-13.9-39-11.2-83.7-11.2-84.2l0.5-7.6l1.4-20.4l-18,9.7
				l-66.9,35.9l-3.9,2.1l-1.4,4.2l-0.5,1.6C24.4,261.2,1.8,383.9,0.1,501.8c-1.4,94.6,10.6,186.3,35.6,272.7
				c42.6,147.4,110,230,110.7,230.8l14.6,17.6l3.8,4.6l0.5,0.7l48.2,71.6l8.4,12.5l9.6-11.6l3.6-4.4c56.5-68,89.1-138,104.8-177.6
				c17.8,44.5,12.2,80.7,12.2,81.2l-1.5,8.6l-4,23.2l20.6-11.3l66.7-36.6l3.8-2.1l1.4-4.1l0.5-1.5c43.8-123.8,67.1-246.4,69.3-364.4
				c1.8-94.6-10-186.4-34.9-272.9C431.4,191,363.7,108.2,363,107.4l-13.3-16.1l-9.1-10.9l-46.5-68L285.6,0L285.6,0z M291,823.2
				c7.9-74.5,4.3-114.5,1.3-148.5c-1.7-19.7-3.2-36.7-1.8-56.9c4-57.3,39-64.7,40.5-65l5.6-1l15.2-2.7l-7.1-13.7l-2.7-5.1
				c-68.7-131.7-25-337.3-6.3-409.5l0.3,1c45.9,152.8,7.8,199.4,5.5,201.9l-2,1.8l-6.2,5.6l3.5,7.6l1.3,2.8
				c76.4,165.7,84.1,301.6,77,386.4c-3.2,39.1-9.8,71.1-16.3,95.1c-25.9-81-72-109.5-74.3-110.8l-6.4-3.8l-17-10.2l-0.1,19.8l0,7.4
				C301,764,296.9,796.4,291,823.2L291,823.2z M206.9,415.5l0.2-20.2l0.1-7.6c0.4-42.1,5.2-76.6,11.8-104.5
				c-9.3,86.4-5.6,132.8-3,166.1c1.6,20.6,2.9,36.8,0.7,55.1c-6.1,49.4-37.9,55.4-39.2,55.6l-5.5,0.8l-15,2.3l6.5,13.7l2.5,5.2
				c73.7,154.8,27.9,342,7.4,408.6l-0.1-0.3c-26.4-78.4-26.6-129.5-22.2-158.6c4.6-29.9,14.9-43,15.8-44.1l1.8-1.9l5.4-5.7l-3.4-7.1
				l-1.3-2.7c-74.9-155.5-83-291.8-76.5-378.8c3-41,9.4-75.1,15.8-100.7c26.9,79.1,72.6,108.5,74.8,109.9l6.4,4L206.9,415.5
				L206.9,415.5z"/>
		</g>
		<path d="M284.4,25.8l43.8,64.1c0,0-88.1,278.6,0,447.6c0,0-48.3,8.5-53.3,79.2s23.3,99.7-16.3,318.9c0,0,57.3-60.8,58-210
			c0,0,61.5,36.8,79.2,153.4c0,0,107.2-216.8-43.6-544c0,0,50.6-45.2-1.3-217.7c0,0,263.4,317.6,73.9,853.6l-57.5,31.6
			c0,0,10.4-58.9-30.2-123c0,0-28.8,104.2-114.1,206.9l-43.8-65c0,0,95.7-246.1,0.5-445.9c0,0,44.5-6.8,52.2-69.1
			c7.7-62.2-22-96.9,17.6-328.1c0,0-56.6,58-58,209.3c0,0-62.2-38.9-81.3-154.1c0,0-103,236.4,45,543.7c0,0-52.1,54.2,3.1,218.2
			c0,0-261.8-316.3-76.4-853.2l58.7-31.5c0,0-5.3,77.4,29.3,123.7C170,234.5,202.9,124.3,284.4,25.8 M285.1,11.7l-7.2,8.7
			c-63.5,76.7-97.5,159.2-110.2,194.4c-22.4-43.5-18.6-102.7-18.6-103.4l1-15.3l-13.5,7.2L78,134.8l-2.9,1.6l-1.1,3.1
			C31.4,262.8,8.9,384.7,7.2,501.9c-1.4,93.9,10.5,184.9,35.3,270.6c42.3,146.2,106.6,225,109.4,228.3l18.6,22.5l1.9,2.8l43.8,65
			l6.3,9.4l7.2-8.7c65-78.3,97.4-156.6,109.7-191.4c27.2,53.7,19.7,100.1,19.7,100.6l-3,17.3l15.4-8.4l57.5-31.6l2.8-1.6l1.1-3.1
			c43.5-123.1,66.7-244.9,68.9-362.1c1.7-93.9-9.9-185-34.6-270.8C425,194.4,360.3,115.2,357.5,111.9l-22.6-27.3L291.4,21
			L285.1,11.7L285.1,11.7z M274.3,894.7c19.5-123.4,14.7-178.3,11-219.4c-1.8-20-3.3-37.2-1.8-58c4.4-62.7,44.6-71.1,46.3-71.4
			l11.2-2.1l-5.2-10.1c-44.5-85.4-42.1-200.6-32.2-282.2c9.6-79,27.8-142.4,31.9-156.1l7.4,24.5c25.8,85.7,25.3,138.2,20.3,167.1
			c-5.3,30.8-16.5,41.8-16.6,42l-4.7,4.2l2.7,5.6c76.9,166.8,84.7,303.9,77.7,389.4c-4.5,54.6-15.4,95.7-23.6,120.5
			c-22.8-96.4-75.2-128.8-77.6-130.2l-12.8-7.6l-0.1,14.9C307.8,807.8,289.7,862.7,274.3,894.7L274.3,894.7z M199.9,402.8l0.1-15.1
			c0.8-84.3,19.2-139.1,34.6-170.3c-19.7,130.3-14.9,190.4-11.7,231.5c1.7,21,3,37.6,0.6,56.5c-6.7,54.6-43.6,61.5-45.1,61.7
			l-11.1,1.9l4.8,10.2c48.2,101.2,45.5,215,34.8,292.7c-9.8,70.7-27.8,125.1-33.6,141.4l-6.9-20.5c-27.5-81.7-27.3-134.6-22.2-164.5
			c5.4-32,17.2-45.1,17.3-45.2l4.1-4.2l-2.6-5.2C87.3,616.4,79.2,478.6,85.7,390.7c4.2-56.1,14.6-99.4,22.5-125.6
			c24.1,94.5,76.4,128.2,78.9,129.7L199.9,402.8L199.9,402.8z"/>
	</g>
</g>
<g id="noir">
</g>
<g id="Logo_typo">
</g>
<g id="Logo_typo_-_copie">
</g>
</svg>
